<?xml version="1.0" encoding="utf-8"?>
<!-- Generator: Adobe Illustrator 21.0.0, SVG Export Plug-In . SVG Version: 6.00 Build 0)  -->
<svg version="1.1" id="Слой_1" xmlns="http://www.w3.org/2000/svg" xmlns:xlink="http://www.w3.org/1999/xlink" x="0px" y="0px"
	 width="1368px" height="1368px" viewBox="0 0 1368 1368" style="enable-background:new 0 0 1368 1368;" xml:space="preserve">
<style type="text/css">
	.st0{fill:#CDCDCD;}
</style>
<path class="st0" d="M677.1,1368c-1,0-2,0-3,0l0-2c1,0,2,0,3,0L677.1,1368z M692.2,1368l0-2c1,0,2,0,3,0l0,2
	C694.2,1367.9,693.2,1367.9,692.2,1368z M659.1,1367.6c-1,0-2-0.1-3-0.1l0.1-2c1,0,2,0.1,3,0.1L659.1,1367.6z M710.1,1367.5l-0.1-2
	c1,0,2-0.1,3-0.1l0.1,2C712.1,1367.4,711.1,1367.5,710.1,1367.5z M641.1,1366.7c-1-0.1-2-0.1-3-0.2l0.1-2c1,0.1,2,0.1,3,0.2
	L641.1,1366.7z M728.1,1366.6l-0.1-2c1-0.1,2-0.1,3-0.2l0.1,2C730.1,1366.5,729.1,1366.5,728.1,1366.6z M623.2,1365.3
	c-1-0.1-2-0.2-3-0.3l0.2-2c1,0.1,2,0.2,3,0.3L623.2,1365.3z M746.1,1365.2l-0.2-2c1-0.1,2-0.2,3-0.3l0.2,2
	C748.1,1365,747.1,1365.1,746.1,1365.2z M605.2,1363.5c-1-0.1-2-0.2-3-0.3l0.2-2c1,0.1,2,0.2,3,0.3L605.2,1363.5z M764,1363.4
	l-0.2-2c1-0.1,2-0.2,3-0.4l0.2,2C766,1363.1,765,1363.3,764,1363.4z M587.3,1361.2c-1-0.1-2-0.3-3-0.4l0.3-2c1,0.1,2,0.3,3,0.4
	L587.3,1361.2z M781.9,1361l-0.3-2c1-0.1,2-0.3,3-0.4l0.3,2C783.9,1360.8,782.9,1360.9,781.9,1361z M569.5,1358.5
	c-1-0.2-2-0.3-3-0.5l0.3-2c1,0.2,2,0.3,3,0.5L569.5,1358.5z M799.7,1358.3l-0.3-2l3-0.5l0.3,2L799.7,1358.3z M551.8,1355.2
	c-1-0.2-2-0.4-2.9-0.6l0.4-2c1,0.2,2,0.4,2.9,0.6L551.8,1355.2z M817.4,1355l-0.4-2c1-0.2,2-0.4,2.9-0.6l0.4,2
	C819.4,1354.6,818.4,1354.8,817.4,1355z M534.2,1351.5c-1-0.2-2-0.4-2.9-0.7l0.4-2c1,0.2,1.9,0.4,2.9,0.7L534.2,1351.5z
	 M835.1,1351.3l-0.4-2c1-0.2,1.9-0.4,2.9-0.7l0.4,1.9C837,1350.8,836,1351,835.1,1351.3z M516.6,1347.4l-2.9-0.7l0.5-1.9l2.9,0.7
	L516.6,1347.4z M852.6,1347.1l-0.5-1.9c1-0.2,1.9-0.5,2.9-0.7l0.5,1.9C854.5,1346.6,853.6,1346.8,852.6,1347.1z M499.2,1342.7
	c-1-0.3-1.9-0.5-2.9-0.8l0.5-1.9c1,0.3,1.9,0.5,2.9,0.8L499.2,1342.7z M870,1342.4l-0.5-1.9c1-0.3,1.9-0.5,2.9-0.8l0.6,1.9
	C871.9,1341.9,871,1342.1,870,1342.4z M481.9,1337.7c-1-0.3-1.9-0.6-2.9-0.9l0.6-1.9c1,0.3,1.9,0.6,2.9,0.9L481.9,1337.7z
	 M887.3,1337.3l-0.6-1.9c1-0.3,1.9-0.6,2.9-0.9l0.6,1.9C889.2,1336.7,888.2,1337,887.3,1337.3z M464.7,1332.1c-1-0.3-1.9-0.6-2.9-1
	l0.6-1.9c0.9,0.3,1.9,0.6,2.8,1L464.7,1332.1z M904.4,1331.7l-0.6-1.9c0.9-0.3,1.9-0.6,2.8-1l0.7,1.9
	C906.3,1331.1,905.4,1331.4,904.4,1331.7z M447.6,1326.1c-0.9-0.3-1.9-0.7-2.8-1l0.7-1.9c0.9,0.4,1.9,0.7,2.8,1L447.6,1326.1z
	 M921.4,1325.7l-0.7-1.9c0.9-0.3,1.9-0.7,2.8-1l0.7,1.9C923.3,1325,922.3,1325.3,921.4,1325.7z M430.8,1319.6l-2.8-1.1l0.7-1.9
	l2.8,1.1L430.8,1319.6z M938.2,1319.2l-0.7-1.9c0.9-0.4,1.9-0.7,2.8-1.1l0.8,1.9C940.1,1318.4,939.2,1318.8,938.2,1319.2z
	 M414.1,1312.7c-0.9-0.4-1.8-0.8-2.8-1.2l0.8-1.8c0.9,0.4,1.8,0.8,2.8,1.2L414.1,1312.7z M954.8,1312.3l-0.8-1.8
	c0.9-0.4,1.8-0.8,2.7-1.2l0.8,1.8C956.6,1311.5,955.7,1311.9,954.8,1312.3z M397.6,1305.3c-0.9-0.4-1.8-0.8-2.7-1.3l0.8-1.8
	c0.9,0.4,1.8,0.8,2.7,1.3L397.6,1305.3z M971.2,1305l-0.8-1.8c0.9-0.4,1.8-0.8,2.7-1.3l0.8,1.8C973,1304.1,972.1,1304.5,971.2,1305z
	 M381.3,1297.5c-0.9-0.4-1.8-0.9-2.7-1.3l0.9-1.8c0.9,0.4,1.8,0.9,2.7,1.3L381.3,1297.5z M987.4,1297.2l-0.9-1.8
	c0.9-0.4,1.8-0.9,2.7-1.3l0.9,1.8C989.2,1296.3,988.3,1296.8,987.4,1297.2z M365.2,1289.3c-0.9-0.5-1.8-0.9-2.7-1.4l0.9-1.8
	c0.9,0.5,1.8,0.9,2.7,1.4L365.2,1289.3z M1003.4,1289l-0.9-1.8c0.9-0.5,1.8-0.9,2.6-1.4l0.9,1.8
	C1005.2,1288.1,1004.3,1288.5,1003.4,1289z M349.3,1280.7c-0.9-0.5-1.7-1-2.6-1.5l1-1.7c0.9,0.5,1.7,1,2.6,1.5L349.3,1280.7z
	 M1019.2,1280.4l-1-1.7c0.9-0.5,1.7-1,2.6-1.5l1,1.7C1020.9,1279.4,1020,1279.9,1019.2,1280.4z M333.7,1271.6
	c-0.9-0.5-1.7-1-2.6-1.6l1-1.7c0.9,0.5,1.7,1,2.6,1.5L333.7,1271.6z M1034.7,1271.4l-1-1.7c0.9-0.5,1.7-1,2.6-1.5l1,1.7
	C1036.4,1270.3,1035.6,1270.8,1034.7,1271.4z M318.3,1262.1c-0.8-0.5-1.7-1.1-2.5-1.6l1.1-1.7c0.8,0.5,1.7,1.1,2.5,1.6L318.3,1262.1
	z M1050,1261.9l-1.1-1.7c0.8-0.5,1.7-1.1,2.5-1.6l1.1,1.7C1051.7,1260.8,1050.9,1261.4,1050,1261.9z M303.2,1252.3
	c-0.8-0.6-1.7-1.1-2.5-1.7l1.1-1.7c0.8,0.6,1.7,1.1,2.5,1.7L303.2,1252.3z M1065.1,1252.1l-1.1-1.7c0.8-0.6,1.7-1.1,2.5-1.7l1.1,1.7
	C1066.8,1251,1065.9,1251.5,1065.1,1252.1z M288.4,1242c-0.8-0.6-1.6-1.2-2.4-1.7l1.2-1.6c0.8,0.6,1.6,1.2,2.4,1.7L288.4,1242z
	 M1079.9,1241.8l-1.2-1.6c0.8-0.6,1.6-1.2,2.4-1.7l1.2,1.6C1081.5,1240.7,1080.7,1241.3,1079.9,1241.8z M273.8,1231.4
	c-0.8-0.6-1.6-1.2-2.4-1.8l1.2-1.6c0.8,0.6,1.6,1.2,2.4,1.8L273.8,1231.4z M1094.4,1231.2l-1.2-1.6c0.8-0.6,1.6-1.2,2.4-1.8l1.2,1.6
	C1096,1230,1095.2,1230.6,1094.4,1231.2z M259.5,1220.4c-0.8-0.6-1.6-1.2-2.4-1.9l1.2-1.6c0.8,0.6,1.6,1.2,2.3,1.9L259.5,1220.4z
	 M1108.7,1220.2l-1.2-1.6c0.8-0.6,1.6-1.2,2.3-1.9l1.3,1.6C1110.2,1219,1109.5,1219.6,1108.7,1220.2z M245.5,1209
	c-0.8-0.6-1.5-1.3-2.3-1.9l1.3-1.5c0.8,0.6,1.5,1.3,2.3,1.9L245.5,1209z M1122.6,1208.9l-1.3-1.5c0.8-0.6,1.5-1.3,2.3-1.9l1.3,1.5
	C1124.2,1207.6,1123.4,1208.2,1122.6,1208.9z M231.8,1197.2c-0.8-0.7-1.5-1.3-2.2-2l1.3-1.5c0.7,0.7,1.5,1.3,2.2,2L231.8,1197.2z
	 M1136.3,1197.1l-1.3-1.5c0.7-0.7,1.5-1.3,2.2-2l1.3,1.5C1137.8,1195.8,1137.1,1196.5,1136.3,1197.1z M218.5,1185.1
	c-0.7-0.7-1.5-1.4-2.2-2l1.4-1.5c0.7,0.7,1.5,1.4,2.2,2L218.5,1185.1z M1149.7,1185l-1.4-1.5c0.7-0.7,1.5-1.4,2.2-2l1.4,1.5
	C1151.1,1183.7,1150.4,1184.3,1149.7,1185z M205.4,1172.7c-0.7-0.7-1.4-1.4-2.1-2.1l1.4-1.4c0.7,0.7,1.4,1.4,2.1,2.1L205.4,1172.7z
	 M1162.7,1172.6l-1.4-1.4c0.7-0.7,1.4-1.4,2.1-2.1l1.4,1.4C1164.1,1171.2,1163.4,1171.9,1162.7,1172.6z M192.7,1159.9
	c-0.7-0.7-1.4-1.4-2.1-2.2l1.4-1.4c0.7,0.7,1.4,1.4,2.1,2.2L192.7,1159.9z M1175.4,1159.8l-1.4-1.4c0.7-0.7,1.4-1.4,2.1-2.2l1.4,1.4
	C1176.8,1158.4,1176.1,1159.1,1175.4,1159.8z M180.4,1146.8c-0.7-0.7-1.4-1.5-2-2.2l1.5-1.3c0.7,0.7,1.3,1.5,2,2.2L180.4,1146.8z
	 M1187.8,1146.7l-1.5-1.4c0.7-0.7,1.3-1.5,2-2.2l1.5,1.3C1189.1,1145.2,1188.4,1146,1187.8,1146.7z M168.3,1133.4
	c-0.7-0.8-1.3-1.5-2-2.3l1.5-1.3c0.7,0.8,1.3,1.5,2,2.3L168.3,1133.4z M1199.8,1133.3l-1.5-1.3c0.7-0.8,1.3-1.5,2-2.3l1.5,1.3
	C1201.1,1131.8,1200.4,1132.5,1199.8,1133.3z M156.7,1119.7c-0.6-0.8-1.3-1.5-1.9-2.3l1.5-1.3c0.6,0.8,1.3,1.5,1.9,2.3L156.7,1119.7
	z M1211.4,1119.5l-1.5-1.3c0.6-0.8,1.3-1.5,1.9-2.3l1.5,1.3C1212.7,1118,1212.1,1118.7,1211.4,1119.5z M145.4,1105.7
	c-0.6-0.8-1.2-1.6-1.8-2.4l1.6-1.2c0.6,0.8,1.2,1.6,1.8,2.4L145.4,1105.7z M1222.8,1105.5l-1.6-1.2c0.6-0.8,1.2-1.6,1.8-2.4l1.6,1.2
	C1224,1103.9,1223.4,1104.7,1222.8,1105.5z M134.5,1091.4c-0.6-0.8-1.2-1.6-1.8-2.4l1.6-1.2c0.6,0.8,1.2,1.6,1.8,2.4L134.5,1091.4z
	 M1233.7,1091.1l-1.6-1.2c0.6-0.8,1.2-1.6,1.8-2.4l1.6,1.2C1234.9,1089.5,1234.3,1090.3,1233.7,1091.1z M123.9,1076.8
	c-0.6-0.8-1.1-1.6-1.7-2.5l1.6-1.1c0.6,0.8,1.1,1.6,1.7,2.4L123.9,1076.8z M1244.2,1076.5l-1.6-1.1c0.6-0.8,1.1-1.6,1.7-2.5l1.6,1.1
	C1245.4,1074.9,1244.8,1075.7,1244.2,1076.5z M113.8,1061.9c-0.6-0.8-1.1-1.7-1.7-2.5l1.7-1.1c0.5,0.8,1.1,1.7,1.6,2.5L113.8,1061.9
	z M1254.4,1061.6l-1.7-1.1c0.6-0.8,1.1-1.7,1.7-2.5l1.7,1.1C1255.5,1059.9,1255,1060.8,1254.4,1061.6z M104,1046.8
	c-0.5-0.8-1.1-1.7-1.6-2.5l1.7-1.1c0.5,0.8,1.1,1.7,1.6,2.5L104,1046.8z M1264.2,1046.4l-1.7-1.1c0.5-0.8,1.1-1.7,1.6-2.5l1.7,1.1
	C1265.3,1044.7,1264.7,1045.6,1264.2,1046.4z M94.7,1031.4c-0.5-0.9-1-1.7-1.5-2.6l1.7-1c0.5,0.9,1,1.7,1.5,2.6L94.7,1031.4z
	 M1273.6,1031l-1.7-1c0.5-0.9,1-1.7,1.5-2.6l1.7,1C1274.6,1029.3,1274.1,1030.1,1273.6,1031z M85.7,1015.8c-0.5-0.9-1-1.7-1.4-2.6
	l1.8-1c0.5,0.9,1,1.7,1.4,2.6L85.7,1015.8z M1282.5,1015.3l-1.7-1c0.5-0.9,1-1.8,1.5-2.6l1.8,1
	C1283.5,1013.6,1283,1014.5,1282.5,1015.3z M77.2,1000c-0.5-0.9-0.9-1.8-1.4-2.7l1.8-0.9c0.5,0.9,0.9,1.8,1.4,2.6L77.2,1000z
	 M1291.1,999.4l-1.8-0.9c0.5-0.9,0.9-1.8,1.4-2.7l1.8,0.9C1292,997.6,1291.6,998.5,1291.1,999.4z M69.1,984
	c-0.4-0.9-0.9-1.8-1.3-2.7l1.8-0.9c0.4,0.9,0.9,1.8,1.3,2.7L69.1,984z M1299.2,983.3l-1.8-0.9c0.4-0.9,0.9-1.8,1.3-2.7l1.8,0.9
	C1300.1,981.5,1299.7,982.4,1299.2,983.3z M61.4,967.7c-0.4-0.9-0.8-1.8-1.2-2.7l1.8-0.8c0.4,0.9,0.8,1.8,1.2,2.7L61.4,967.7z
	 M1306.9,966.9l-1.8-0.8c0.4-0.9,0.8-1.8,1.2-2.7l1.8,0.8C1307.7,965.1,1307.3,966,1306.9,966.9z M54.2,951.3
	c-0.4-0.9-0.8-1.8-1.2-2.8l1.8-0.8c0.4,0.9,0.8,1.8,1.2,2.7L54.2,951.3z M1314.2,950.4l-1.8-0.8c0.4-0.9,0.8-1.8,1.2-2.8l1.8,0.8
	C1315,948.5,1314.6,949.5,1314.2,950.4z M47.4,934.7c-0.4-0.9-0.7-1.9-1.1-2.8l1.9-0.7c0.4,0.9,0.7,1.9,1.1,2.8L47.4,934.7z
	 M1321,933.7l-1.9-0.7c0.4-0.9,0.7-1.9,1.1-2.8l1.9,0.7C1321.7,931.8,1321.4,932.7,1321,933.7z M41,917.8c-0.3-0.9-0.7-1.9-1-2.8
	l1.9-0.7c0.3,0.9,0.7,1.9,1,2.8L41,917.8z M1327.4,916.7l-1.9-0.7c0.3-0.9,0.7-1.9,1-2.8l1.9,0.7
	C1328.1,914.8,1327.7,915.8,1327.4,916.7z M35.1,900.8c-0.3-0.9-0.6-1.9-0.9-2.9l1.9-0.6c0.3,0.9,0.6,1.9,0.9,2.8L35.1,900.8z
	 M1333.3,899.6l-1.9-0.6c0.3-1,0.6-1.9,0.9-2.9l1.9,0.6C1333.9,897.7,1333.6,898.7,1333.3,899.6z M29.6,883.6
	c-0.3-1-0.6-1.9-0.9-2.9l1.9-0.6c0.3,1,0.6,1.9,0.9,2.9L29.6,883.6z M1338.8,882.4l-1.9-0.6c0.3-1,0.6-1.9,0.9-2.9l1.9,0.6
	C1339.4,880.5,1339.1,881.4,1338.8,882.4z M24.6,866.3c-0.3-1-0.5-1.9-0.8-2.9l1.9-0.5c0.3,1,0.5,1.9,0.8,2.9L24.6,866.3z
	 M1343.8,865.1l-1.9-0.5c0.3-1,0.5-1.9,0.8-2.9l1.9,0.5C1344.3,863.1,1344,864.1,1343.8,865.1z M20,848.9c-0.2-1-0.5-1.9-0.7-2.9
	l1.9-0.5c0.2,1,0.5,1.9,0.7,2.9L20,848.9z M1348.3,847.6l-1.9-0.5l0.7-2.9l1.9,0.5L1348.3,847.6z M15.9,831.3c-0.2-1-0.4-2-0.6-2.9
	l2-0.4c0.2,1,0.4,2,0.6,2.9L15.9,831.3z M1352.4,830.1l-2-0.4c0.2-1,0.4-2,0.6-2.9l2,0.4C1352.8,828.1,1352.6,829.1,1352.4,830.1z
	 M12.3,813.7c-0.2-1-0.4-2-0.6-3l2-0.4c0.2,1,0.4,2,0.6,2.9L12.3,813.7z M1356,812.4l-2-0.4l0.6-2.9l2,0.4L1356,812.4z M9.1,795.9
	c-0.2-1-0.3-2-0.5-3l2-0.3c0.2,1,0.3,2,0.5,3L9.1,795.9z M1359.1,794.7l-2-0.3c0.2-1,0.3-2,0.5-3l2,0.3
	C1359.4,792.7,1359.3,793.7,1359.1,794.7z M6.4,778.1c-0.1-1-0.3-2-0.4-3l2-0.3c0.1,1,0.3,2,0.4,3L6.4,778.1z M1361.8,776.8l-2-0.3
	c0.1-1,0.3-2,0.4-3l2,0.3C1362,774.9,1361.9,775.8,1361.8,776.8z M4.2,760.2c-0.1-1-0.2-2-0.3-3l2-0.2c0.1,1,0.2,2,0.3,3L4.2,760.2z
	 M1363.9,758.9l-2-0.2c0.1-1,0.2-2,0.3-3l2,0.2C1364.2,757,1364,758,1363.9,758.9z M2.4,742.3c-0.1-1-0.2-2-0.2-3l2-0.2
	c0.1,1,0.2,2,0.2,3L2.4,742.3z M1365.7,741l-2-0.2c0.1-1,0.2-2,0.2-3l2,0.2C1365.8,739,1365.7,740,1365.7,741z M1.2,724.3
	c-0.1-1-0.1-2-0.2-3l2-0.1c0.1,1,0.1,2,0.2,3L1.2,724.3z M1366.9,723l-2-0.1c0.1-1,0.1-2,0.2-3l2,0.1C1367,721,1367,722,1366.9,723z
	 M0.4,706.3c0-1-0.1-2-0.1-3l2-0.1c0,1,0.1,2,0.1,3L0.4,706.3z M1367.7,705l-2-0.1c0-1,0.1-2,0.1-3l2,0.1
	C1367.7,703,1367.7,704,1367.7,705z M0,688.3c0-1,0-2,0-3l2,0c0,1,0,2,0,3L0,688.3z M1368,687l-2,0c0-1,0-2,0-3h2
	C1368,685,1368,686,1368,687z M1366,678.4c0-1,0-2,0-3l2,0c0,1,0,2,0,3L1366,678.4z M2.1,670.3l-2,0c0-1,0-2,0.1-3l2,0
	C2.2,668.3,2.2,669.3,2.1,670.3z M1365.6,660.4c0-1-0.1-2-0.1-3l2-0.1c0,1,0.1,2,0.1,3L1365.6,660.4z M2.7,652.4l-2-0.1
	c0-1,0.1-2,0.1-3l2,0.1C2.8,650.4,2.8,651.4,2.7,652.4z M1364.8,642.5c-0.1-1-0.1-2-0.2-3l2-0.1c0.1,1,0.1,2,0.2,3L1364.8,642.5z
	 M3.8,634.4l-2-0.1c0.1-1,0.1-2,0.2-3l2,0.2C3.9,632.4,3.8,633.4,3.8,634.4z M1363.4,624.6c-0.1-1-0.2-2-0.3-3l2-0.2
	c0.1,1,0.2,2,0.3,3L1363.4,624.6z M5.3,616.5l-2-0.2c0.1-1,0.2-2,0.3-3l2,0.2C5.5,614.5,5.4,615.5,5.3,616.5z M1361.7,606.7
	c-0.1-1-0.2-2-0.3-3l2-0.2c0.1,1,0.2,2,0.3,3L1361.7,606.7z M7.3,598.7l-2-0.2c0.1-1,0.3-2,0.4-3l2,0.3
	C7.5,596.7,7.4,597.7,7.3,598.7z M1359.4,588.9c-0.1-1-0.3-2-0.4-3l2-0.3c0.1,1,0.3,2,0.4,3L1359.4,588.9z M9.7,580.9l-2-0.3
	c0.1-1,0.3-2,0.5-3l2,0.3C10,578.9,9.9,579.9,9.7,580.9z M1356.7,571.1c-0.2-1-0.3-2-0.5-3l2-0.3c0.2,1,0.3,2,0.5,3L1356.7,571.1z
	 M12.7,563.1l-2-0.4c0.2-1,0.4-2,0.5-3l2,0.4C13,561.2,12.9,562.2,12.7,563.1z M1353.5,553.4l-0.6-2.9l2-0.4l0.6,2.9L1353.5,553.4z
	 M16.1,545.5l-2-0.4c0.2-1,0.4-2,0.6-2.9l2,0.4C16.5,543.5,16.3,544.5,16.1,545.5z M1349.9,535.8c-0.2-1-0.4-1.9-0.7-2.9l2-0.4
	c0.2,1,0.4,2,0.7,2.9L1349.9,535.8z M19.9,527.9l-1.9-0.5c0.2-1,0.5-1.9,0.7-2.9l1.9,0.5C20.4,526,20.2,527,19.9,527.9z
	 M1345.7,518.3l-0.7-2.9l1.9-0.5l0.7,2.9L1345.7,518.3z M24.3,510.5l-1.9-0.5c0.3-1,0.5-1.9,0.8-2.9l1.9,0.5
	C24.8,508.6,24.5,509.5,24.3,510.5z M1341.2,501c-0.3-1-0.5-1.9-0.8-2.9l1.9-0.5c0.3,1,0.5,1.9,0.8,2.9L1341.2,501z M29.1,493.2
	l-1.9-0.6c0.3-1,0.6-1.9,0.8-2.9l1.9,0.6C29.6,491.3,29.3,492.2,29.1,493.2z M1336.1,483.7c-0.3-1-0.6-1.9-0.9-2.9l1.9-0.6
	c0.3,1,0.6,1.9,0.9,2.9L1336.1,483.7z M34.3,476l-1.9-0.6c0.3-1,0.6-1.9,0.9-2.9l1.9,0.6C34.9,474.1,34.6,475,34.3,476z
	 M1330.6,466.6l-1-2.8l1.9-0.6l1,2.8L1330.6,466.6z M40,458.9l-1.9-0.7c0.3-0.9,0.7-1.9,1-2.8l1.9,0.7C40.7,457,40.4,457.9,40,458.9
	z M1324.7,449.6c-0.3-0.9-0.7-1.9-1-2.8l1.9-0.7c0.3,0.9,0.7,1.9,1,2.8L1324.7,449.6z M46.2,441.9l-1.9-0.7c0.4-0.9,0.7-1.9,1.1-2.8
	l1.9,0.7C46.9,440.1,46.6,441,46.2,441.9z M1318.3,432.8c-0.4-0.9-0.7-1.9-1.1-2.8l1.9-0.7c0.4,0.9,0.7,1.9,1.1,2.8L1318.3,432.8z
	 M52.8,425.2l-1.8-0.8c0.4-0.9,0.8-1.9,1.2-2.8l1.8,0.8C53.6,423.3,53.2,424.3,52.8,425.2z M1311.4,416.3c-0.4-0.9-0.8-1.8-1.2-2.7
	l1.8-0.8c0.4,0.9,0.8,1.8,1.2,2.7L1311.4,416.3z M59.9,408.6l-1.8-0.8c0.4-0.9,0.8-1.8,1.2-2.8l1.8,0.8
	C60.7,406.8,60.3,407.7,59.9,408.6z M1304.2,399.9c-0.4-0.9-0.8-1.8-1.3-2.7l1.8-0.8c0.4,0.9,0.8,1.8,1.3,2.7L1304.2,399.9z
	 M67.4,392.2l-1.8-0.9c0.4-0.9,0.9-1.8,1.3-2.7l1.8,0.9C68.2,390.4,67.8,391.3,67.4,392.2z M1296.5,383.7c-0.4-0.9-0.9-1.8-1.3-2.7
	l1.8-0.9c0.4,0.9,0.9,1.8,1.3,2.7L1296.5,383.7z M75.3,376l-1.8-0.9c0.5-0.9,0.9-1.8,1.4-2.7l1.8,0.9
	C76.2,374.3,75.8,375.2,75.3,376z M1288.4,367.8c-0.5-0.9-0.9-1.8-1.4-2.6l1.8-0.9c0.5,0.9,0.9,1.8,1.4,2.6L1288.4,367.8z
	 M83.7,360.1l-1.8-1c0.5-0.9,1-1.8,1.4-2.6l1.8,1C84.6,358.3,84.2,359.2,83.7,360.1z M1279.9,352c-0.5-0.9-1-1.7-1.5-2.6l1.7-1
	c0.5,0.9,1,1.7,1.5,2.6L1279.9,352z M92.4,344.4l-1.7-1c0.5-0.9,1-1.7,1.5-2.6l1.7,1C93.4,342.6,92.9,343.5,92.4,344.4z
	 M1270.9,336.5c-0.5-0.9-1-1.7-1.5-2.6l1.7-1c0.5,0.9,1,1.7,1.5,2.6L1270.9,336.5z M101.6,328.9l-1.7-1c0.5-0.9,1-1.7,1.6-2.6l1.7,1
	C102.7,327.2,102.2,328,101.6,328.9z M1261.6,321.2c-0.5-0.8-1.1-1.7-1.6-2.5l1.7-1.1c0.5,0.8,1.1,1.7,1.6,2.5L1261.6,321.2z
	 M111.2,313.7l-1.7-1.1c0.5-0.8,1.1-1.7,1.6-2.5l1.7,1.1C112.3,312,111.8,312.8,111.2,313.7z M1251.8,306.1
	c-0.6-0.8-1.1-1.7-1.7-2.5l1.7-1.1c0.6,0.8,1.1,1.7,1.7,2.5L1251.8,306.1z M121.2,298.7l-1.6-1.1c0.6-0.8,1.1-1.7,1.7-2.5l1.6,1.1
	C122.3,297,121.8,297.9,121.2,298.7z M1241.7,291.3c-0.6-0.8-1.2-1.6-1.7-2.4l1.6-1.2c0.6,0.8,1.2,1.6,1.7,2.4L1241.7,291.3z
	 M131.6,284l-1.6-1.2c0.6-0.8,1.2-1.6,1.8-2.4l1.6,1.2C132.7,282.4,132.2,283.2,131.6,284z M1231.1,276.8c-0.6-0.8-1.2-1.6-1.8-2.4
	l1.6-1.2c0.6,0.8,1.2,1.6,1.8,2.4L1231.1,276.8z M142.3,269.6l-1.6-1.2c0.6-0.8,1.2-1.6,1.8-2.4l1.6,1.2
	C143.5,268,142.9,268.8,142.3,269.6z M1220.2,262.5c-0.6-0.8-1.2-1.6-1.9-2.3l1.6-1.2c0.6,0.8,1.2,1.6,1.9,2.4L1220.2,262.5z
	 M153.4,255.4l-1.6-1.3c0.6-0.8,1.3-1.6,1.9-2.3l1.5,1.3C154.7,253.9,154.1,254.7,153.4,255.4z M1208.9,248.6
	c-0.6-0.8-1.3-1.5-1.9-2.3l1.5-1.3c0.6,0.8,1.3,1.5,1.9,2.3L1208.9,248.6z M164.9,241.6l-1.5-1.3c0.7-0.8,1.3-1.5,2-2.3l1.5,1.3
	C166.2,240.1,165.6,240.8,164.9,241.6z M1197.3,234.9c-0.7-0.8-1.3-1.5-2-2.2l1.5-1.3c0.7,0.7,1.3,1.5,2,2.3L1197.3,234.9z
	 M176.8,228.1l-1.5-1.3c0.7-0.7,1.3-1.5,2-2.2l1.5,1.3C178.1,226.6,177.4,227.3,176.8,228.1z M1185.3,221.6c-0.7-0.7-1.4-1.5-2-2.2
	l1.5-1.4c0.7,0.7,1.4,1.5,2,2.2L1185.3,221.6z M189,214.9l-1.5-1.4c0.7-0.7,1.4-1.5,2.1-2.2l1.4,1.4
	C190.3,213.4,189.7,214.2,189,214.9z M1172.9,208.5c-0.7-0.7-1.4-1.4-2.1-2.1l1.4-1.4c0.7,0.7,1.4,1.4,2.1,2.1L1172.9,208.5z
	 M201.5,202l-1.4-1.4c0.7-0.7,1.4-1.4,2.1-2.1l1.4,1.4C202.9,200.6,202.2,201.3,201.5,202z M1160.2,195.8c-0.7-0.7-1.4-1.4-2.1-2.1
	l1.4-1.4c0.7,0.7,1.4,1.4,2.2,2.1L1160.2,195.8z M214.4,189.5L213,188c0.7-0.7,1.5-1.4,2.2-2.1l1.4,1.5
	C215.8,188.1,215.1,188.8,214.4,189.5z M1147.2,183.4c-0.7-0.7-1.5-1.4-2.2-2l1.4-1.5c0.7,0.7,1.5,1.4,2.2,2L1147.2,183.4z
	 M227.5,177.3l-1.3-1.5c0.7-0.7,1.5-1.3,2.2-2l1.3,1.5C229,175.9,228.3,176.6,227.5,177.3z M1133.8,171.4c-0.8-0.7-1.5-1.3-2.3-2
	l1.3-1.5c0.8,0.7,1.5,1.3,2.3,2L1133.8,171.4z M241,165.4l-1.3-1.5c0.8-0.6,1.5-1.3,2.3-1.9l1.3,1.5
	C242.6,164.1,241.8,164.8,241,165.4z M1120.2,159.7c-0.8-0.6-1.5-1.3-2.3-1.9l1.3-1.5c0.8,0.6,1.5,1.3,2.3,1.9L1120.2,159.7z
	 M254.8,153.9l-1.3-1.6c0.8-0.6,1.6-1.3,2.3-1.9l1.3,1.6C256.4,152.7,255.6,153.3,254.8,153.9z M1106.2,148.4
	c-0.8-0.6-1.6-1.2-2.4-1.9l1.2-1.6c0.8,0.6,1.6,1.2,2.4,1.9L1106.2,148.4z M268.9,142.8l-1.2-1.6c0.8-0.6,1.6-1.2,2.4-1.8l1.2,1.6
	C270.5,141.6,269.7,142.2,268.9,142.8z M1092,137.4c-0.8-0.6-1.6-1.2-2.4-1.8l1.2-1.6c0.8,0.6,1.6,1.2,2.4,1.8L1092,137.4z
	 M283.3,132.1l-1.2-1.6c0.8-0.6,1.6-1.2,2.4-1.8l1.2,1.6C284.9,130.9,284.1,131.5,283.3,132.1z M1077.4,126.8
	c-0.8-0.6-1.6-1.2-2.5-1.7l1.1-1.6c0.8,0.6,1.6,1.2,2.5,1.7L1077.4,126.8z M298,121.7l-1.1-1.6c0.8-0.6,1.6-1.1,2.5-1.7l1.1,1.7
	C299.6,120.6,298.8,121.1,298,121.7z M1062.6,116.6c-0.8-0.6-1.7-1.1-2.5-1.7l1.1-1.7c0.8,0.6,1.7,1.1,2.5,1.7L1062.6,116.6z
	 M312.9,111.7l-1.1-1.7c0.8-0.5,1.7-1.1,2.5-1.6l1.1,1.7C314.5,110.6,313.7,111.2,312.9,111.7z M1047.5,106.8
	c-0.8-0.5-1.7-1.1-2.5-1.6l1.1-1.7c0.9,0.5,1.7,1.1,2.5,1.6L1047.5,106.8z M328,102.2l-1-1.7c0.9-0.5,1.7-1,2.6-1.6l1,1.7
	C329.7,101.1,328.9,101.6,328,102.2z M1032.2,97.4c-0.9-0.5-1.7-1-2.6-1.5l1-1.7c0.9,0.5,1.7,1,2.6,1.5L1032.2,97.4z M343.4,93
	l-1-1.7c0.9-0.5,1.7-1,2.6-1.5l1,1.7C345.2,92,344.3,92.5,343.4,93z M1016.6,88.4c-0.9-0.5-1.7-1-2.6-1.5l1-1.8
	c0.9,0.5,1.8,1,2.6,1.5L1016.6,88.4z M359.1,84.2l-1-1.8c0.9-0.5,1.8-1,2.6-1.4l0.9,1.8C360.8,83.3,360,83.8,359.1,84.2z
	 M1000.7,79.9c-0.9-0.5-1.8-0.9-2.7-1.4l0.9-1.8c0.9,0.5,1.8,0.9,2.7,1.4L1000.7,79.9z M374.9,75.9l-0.9-1.8
	c0.9-0.5,1.8-0.9,2.7-1.4l0.9,1.8C376.7,75,375.8,75.4,374.9,75.9z M984.7,71.7c-0.9-0.4-1.8-0.9-2.7-1.3l0.9-1.8
	c0.9,0.4,1.8,0.9,2.7,1.3L984.7,71.7z M391,68l-0.9-1.8c0.9-0.4,1.8-0.9,2.7-1.3l0.9,1.8C392.8,67.1,391.9,67.5,391,68z M968.4,64
	c-0.9-0.4-1.8-0.8-2.7-1.2l0.8-1.8c0.9,0.4,1.8,0.8,2.7,1.3L968.4,64z M407.3,60.5l-0.8-1.8c0.9-0.4,1.8-0.8,2.7-1.2l0.8,1.8
	C409.1,59.7,408.2,60.1,407.3,60.5z M951.9,56.6c-0.9-0.4-1.8-0.8-2.8-1.2l0.8-1.8c0.9,0.4,1.9,0.8,2.8,1.2L951.9,56.6z M423.7,53.4
	l-0.8-1.8c0.9-0.4,1.9-0.8,2.8-1.1l0.8,1.9C425.6,52.7,424.7,53,423.7,53.4z M935.3,49.8c-0.9-0.4-1.9-0.7-2.8-1.1l0.7-1.9
	c0.9,0.4,1.9,0.7,2.8,1.1L935.3,49.8z M440.4,46.8l-0.7-1.9c0.9-0.4,1.9-0.7,2.8-1.1l0.7,1.9C442.3,46.1,441.4,46.4,440.4,46.8z
	 M918.4,43.4c-0.9-0.3-1.9-0.7-2.8-1l0.7-1.9c0.9,0.3,1.9,0.7,2.8,1L918.4,43.4z M457.3,40.6l-0.7-1.9c0.9-0.3,1.9-0.7,2.8-1
	l0.7,1.9C459.2,39.9,458.2,40.3,457.3,40.6z M901.4,37.4c-1-0.3-1.9-0.6-2.9-1l0.6-1.9c1,0.3,1.9,0.6,2.9,1L901.4,37.4z M474.3,34.8
	l-0.6-1.9c1-0.3,1.9-0.6,2.9-0.9l0.6,1.9C476.2,34.2,475.3,34.5,474.3,34.8z M884.2,31.9c-1-0.3-1.9-0.6-2.9-0.9l0.6-1.9
	c1,0.3,1.9,0.6,2.9,0.9L884.2,31.9z M491.5,29.5l-0.6-1.9c1-0.3,1.9-0.6,2.9-0.8l0.6,1.9C493.4,29,492.5,29.3,491.5,29.5z M867,26.8
	c-1-0.3-1.9-0.5-2.9-0.8l0.5-1.9c1,0.3,1.9,0.5,2.9,0.8L867,26.8z M508.8,24.7l-0.5-1.9c1-0.3,1.9-0.5,2.9-0.8l0.5,1.9
	C510.7,24.2,509.8,24.5,508.8,24.7z M849.6,22.2c-1-0.2-1.9-0.5-2.9-0.7l0.5-1.9c1,0.2,1.9,0.5,2.9,0.7L849.6,22.2z M526.2,20.3
	l-0.5-1.9c1-0.2,1.9-0.5,2.9-0.7l0.5,1.9C528.2,19.9,527.2,20.1,526.2,20.3z M832.1,18.1c-1-0.2-2-0.4-2.9-0.6l0.4-2
	c1,0.2,2,0.4,2.9,0.6L832.1,18.1z M543.8,16.4l-0.4-2c1-0.2,2-0.4,2.9-0.6l0.4,2C545.7,16,544.8,16.2,543.8,16.4z M814.5,14.5
	c-1-0.2-2-0.4-2.9-0.6l0.4-2c1,0.2,2,0.4,3,0.6L814.5,14.5z M561.4,13l-0.4-2c1-0.2,2-0.4,3-0.5l0.3,2
	C563.4,12.6,562.4,12.8,561.4,13z M796.8,11.3c-1-0.2-2-0.3-3-0.5l0.3-2c1,0.2,2,0.3,3,0.5L796.8,11.3z M579.1,10l-0.3-2
	c1-0.2,2-0.3,3-0.5l0.3,2C581.1,9.7,580.1,9.9,579.1,10z M779.1,8.6c-1-0.1-2-0.3-3-0.4l0.3-2c1,0.1,2,0.3,3,0.4L779.1,8.6z
	 M596.9,7.5l-0.3-2c1-0.1,2-0.3,3-0.4l0.2,2C598.9,7.3,597.9,7.4,596.9,7.5z M761.2,6.3c-1-0.1-2-0.2-3-0.3l0.2-2c1,0.1,2,0.2,3,0.3
	L761.2,6.3z M614.8,5.5l-0.2-2c1-0.1,2-0.2,3-0.3l0.2,2C616.8,5.3,615.8,5.4,614.8,5.5z M743.3,4.5c-1-0.1-2-0.2-3-0.3l0.2-2
	c1,0.1,2,0.2,3,0.3L743.3,4.5z M632.7,3.9l-0.1-2c1-0.1,2-0.1,3-0.2l0.1,2C634.7,3.8,633.7,3.8,632.7,3.9z M725.4,3.2
	c-1-0.1-2-0.1-3-0.2l0.1-2c1,0.1,2,0.1,3,0.2L725.4,3.2z M650.6,2.8l-0.1-2c1,0,2-0.1,3-0.1l0.1,2C652.6,2.7,651.6,2.8,650.6,2.8z
	 M707.5,2.4c-1,0-2-0.1-3-0.1l0.1-2c1,0,2,0.1,3,0.1L707.5,2.4z M668.5,2.2l0-2c1,0,2,0,3-0.1l0,2C670.5,2.1,669.5,2.1,668.5,2.2z
	 M689.5,2c-1,0-2,0-3,0l0-2c1,0,2,0,3,0L689.5,2z"/>
</svg>
