<?xml version="1.0" encoding="utf-8"?>
<!-- Generator: Adobe Illustrator 21.0.0, SVG Export Plug-In . SVG Version: 6.00 Build 0)  -->
<svg version="1.1" id="Слой_1" xmlns="http://www.w3.org/2000/svg" xmlns:xlink="http://www.w3.org/1999/xlink" x="0px" y="0px"
	 width="461.3px" height="461.3px" viewBox="0 0 461.3 461.3" style="enable-background:new 0 0 461.3 461.3;" xml:space="preserve"
	>
<style type="text/css">
	.st0{fill:#CDCDCD;}
</style>
<path class="st0" d="M231.2,461.3l0-2c1,0,2,0,3,0l0,2C233.2,461.3,232.2,461.3,231.2,461.3z M230.7,461.3c-1,0-2,0-3,0l0-2
	c1,0,2,0,3,0V461.3z M212.6,460.6c-1-0.1-2-0.2-3-0.3l0.2-2c1,0.1,2,0.2,3,0.3L212.6,460.6z M249.3,460.6l-0.2-2c1-0.1,2-0.2,3-0.3
	l0.2,2C251.3,460.4,250.3,460.5,249.3,460.6z M194.7,458.5c-1-0.2-2-0.3-3-0.5l0.3-2c1,0.2,2,0.3,2.9,0.5L194.7,458.5z M267.2,458.5
	l-0.3-2c1-0.2,2-0.3,2.9-0.5l0.3,2C269.2,458.1,268.2,458.3,267.2,458.5z M176.9,455c-1-0.2-2-0.5-2.9-0.7l0.5-1.9
	c1,0.2,1.9,0.5,2.9,0.7L176.9,455z M284.9,454.9l-0.5-1.9c1-0.2,1.9-0.5,2.9-0.7l0.5,1.9C286.9,454.4,285.9,454.7,284.9,454.9z
	 M159.5,450.2c-1-0.3-1.9-0.6-2.9-1l0.6-1.9c0.9,0.3,1.9,0.6,2.8,0.9L159.5,450.2z M302.3,450l-0.6-1.9c0.9-0.3,1.9-0.6,2.8-0.9
	l0.6,1.9C304.2,449.4,303.3,449.7,302.3,450z M142.6,443.9c-0.9-0.4-1.9-0.8-2.8-1.2l0.8-1.8c0.9,0.4,1.8,0.8,2.8,1.2L142.6,443.9z
	 M319.2,443.7l-0.8-1.8c0.9-0.4,1.8-0.8,2.7-1.2l0.8,1.8C321.1,442.9,320.2,443.3,319.2,443.7z M126.1,436.3
	c-0.9-0.5-1.8-0.9-2.7-1.4l0.9-1.8c0.9,0.5,1.8,0.9,2.7,1.4L126.1,436.3z M335.6,436.1l-0.9-1.8c0.9-0.5,1.8-0.9,2.6-1.4l0.9,1.8
	C337.4,435.2,336.5,435.7,335.6,436.1z M110.3,427.5c-0.9-0.5-1.7-1.1-2.6-1.6l1.1-1.7c0.8,0.5,1.7,1.1,2.5,1.6L110.3,427.5z
	 M351.3,427.3l-1-1.7c0.8-0.5,1.7-1,2.5-1.6l1.1,1.7C353,426.2,352.2,426.8,351.3,427.3z M95.3,417.5c-0.8-0.6-1.6-1.2-2.4-1.8
	l1.2-1.6c0.8,0.6,1.6,1.2,2.4,1.8L95.3,417.5z M366.3,417.2l-1.2-1.6c0.8-0.6,1.6-1.2,2.4-1.8l1.2,1.6
	C368,416,367.1,416.6,366.3,417.2z M81.1,406.3c-0.8-0.7-1.5-1.3-2.3-2l1.3-1.5c0.8,0.7,1.5,1.3,2.3,2L81.1,406.3z M380.5,406
	l-1.3-1.5c0.8-0.6,1.5-1.3,2.3-2l1.3,1.5C382,404.7,381.3,405.4,380.5,406z M67.8,394c-0.7-0.7-1.4-1.4-2.1-2.1l1.4-1.4
	c0.7,0.7,1.4,1.4,2.1,2.1L67.8,394z M393.8,393.8l-1.4-1.4c0.7-0.7,1.4-1.4,2.1-2.1l1.4,1.4C395.2,392.3,394.5,393.1,393.8,393.8z
	 M55.5,380.8c-0.7-0.8-1.3-1.5-1.9-2.3l1.5-1.3c0.6,0.8,1.3,1.5,1.9,2.3L55.5,380.8z M406,380.5l-1.5-1.3c0.6-0.8,1.3-1.5,1.9-2.3
	l1.5,1.3C407.3,379,406.7,379.7,406,380.5z M44.3,366.6c-0.6-0.8-1.2-1.6-1.8-2.4l1.6-1.2c0.6,0.8,1.2,1.6,1.7,2.4L44.3,366.6z
	 M417.2,366.3l-1.6-1.2c0.6-0.8,1.2-1.6,1.7-2.4l1.6,1.2C418.4,364.7,417.8,365.5,417.2,366.3z M34.2,351.6c-0.5-0.9-1-1.7-1.6-2.6
	l1.7-1c0.5,0.9,1,1.7,1.5,2.5L34.2,351.6z M427.3,351.3l-1.7-1c0.5-0.8,1-1.7,1.5-2.6l1.7,1C428.4,349.6,427.8,350.4,427.3,351.3z
	 M25.4,335.9c-0.5-0.9-0.9-1.8-1.4-2.7l1.8-0.9c0.4,0.9,0.9,1.8,1.3,2.7L25.4,335.9z M436.2,335.5l-1.8-0.9c0.5-0.9,0.9-1.8,1.3-2.7
	l1.8,0.9C437.1,333.7,436.6,334.6,436.2,335.5z M17.8,319.6c-0.4-0.9-0.8-1.8-1.1-2.8l1.9-0.7c0.4,0.9,0.7,1.8,1.1,2.8L17.8,319.6z
	 M443.8,319.1l-1.8-0.8c0.4-0.9,0.8-1.8,1.1-2.8l1.9,0.7C444.5,317.2,444.2,318.2,443.8,319.1z M11.4,302.6c-0.3-1-0.6-1.9-0.9-2.9
	l1.9-0.6c0.3,1,0.6,1.9,0.9,2.8L11.4,302.6z M450,302.1l-1.9-0.6c0.3-1,0.6-1.9,0.9-2.9l1.9,0.6C450.7,300.2,450.4,301.2,450,302.1z
	 M6.5,285.3c-0.2-1-0.5-2-0.7-2.9l1.9-0.4c0.2,1,0.5,1.9,0.7,2.9L6.5,285.3z M455,284.7l-1.9-0.5c0.2-1,0.5-1.9,0.7-2.9l2,0.4
	C455.4,282.8,455.2,283.8,455,284.7z M2.9,267.5c-0.2-1-0.3-2-0.5-3l2-0.3c0.1,1,0.3,2,0.5,3L2.9,267.5z M458.5,267l-2-0.3
	c0.2-1,0.3-2,0.4-3l2,0.3C458.8,265,458.6,266,458.5,267z M0.8,249.6c-0.1-1-0.2-2-0.2-3l2-0.1c0.1,1,0.1,2,0.2,3L0.8,249.6z
	 M460.6,249.1l-2-0.2c0.1-1,0.2-2,0.2-3l2,0.1C460.8,247.1,460.7,248.1,460.6,249.1z M0,231.6l0-0.9c0-0.7,0-1.4,0-2.1l2,0
	c0,0.7,0,1.4,0,2.1l0,0.9L0,231.6z M461.3,231h-2v-0.3c0-0.9,0-1.8,0-2.6l2,0c0,0.9,0,1.8,0,2.7V231z M2.6,213.7l-2-0.1
	c0.1-1,0.2-2,0.2-3l2,0.2C2.8,211.7,2.7,212.7,2.6,213.7z M458.7,213.1c-0.1-1-0.2-2-0.2-3l2-0.2c0.1,1,0.2,2,0.2,3L458.7,213.1z
	 M4.6,195.9l-2-0.3c0.2-1,0.3-2,0.5-3l2,0.3C4.9,193.9,4.8,194.9,4.6,195.9z M456.6,195.3c-0.2-1-0.3-2-0.5-2.9l2-0.3
	c0.2,1,0.3,2,0.5,3L456.6,195.3z M8,178.3l-1.9-0.5c0.2-1,0.5-2,0.7-2.9l1.9,0.5C8.5,176.3,8.3,177.3,8,178.3z M453.2,177.7
	c-0.2-1-0.5-1.9-0.7-2.9l1.9-0.5c0.2,1,0.5,1.9,0.7,2.9L453.2,177.7z M12.8,161l-1.9-0.6c0.3-1,0.6-1.9,0.9-2.9l1.9,0.6
	C13.4,159.1,13.1,160.1,12.8,161z M448.4,160.5c-0.3-0.9-0.6-1.9-0.9-2.8l1.9-0.6c0.3,1,0.6,1.9,0.9,2.9L448.4,160.5z M18.9,144.1
	l-1.9-0.8c0.4-0.9,0.8-1.9,1.2-2.8l1.8,0.8C19.7,142.3,19.3,143.2,18.9,144.1z M442.2,143.7c-0.4-0.9-0.8-1.8-1.2-2.7l1.8-0.8
	c0.4,0.9,0.8,1.8,1.2,2.8L442.2,143.7z M26.4,127.8l-1.8-0.9c0.5-0.9,0.9-1.8,1.4-2.7l1.8,0.9C27.3,126,26.8,126.9,26.4,127.8z
	 M434.7,127.4c-0.4-0.9-0.9-1.8-1.4-2.6l1.8-0.9c0.5,0.9,0.9,1.8,1.4,2.7L434.7,127.4z M35.1,112.1l-1.7-1c0.5-0.9,1.1-1.7,1.6-2.6
	l1.7,1.1C36.1,110.4,35.6,111.3,35.1,112.1z M426,111.8c-0.5-0.8-1-1.7-1.6-2.5l1.7-1.1c0.5,0.8,1.1,1.7,1.6,2.6L426,111.8z
	 M45,97.2L43.4,96c0.6-0.8,1.2-1.6,1.8-2.4l1.6,1.2C46.1,95.6,45.6,96.4,45,97.2z M416.1,96.9c-0.6-0.8-1.2-1.6-1.8-2.4l1.6-1.2
	c0.6,0.8,1.2,1.6,1.8,2.4L416.1,96.9z M56,83.1l-1.5-1.3c0.6-0.8,1.3-1.5,2-2.3l1.5,1.3C57.3,81.5,56.7,82.3,56,83.1z M405.1,82.8
	c-0.6-0.8-1.3-1.5-1.9-2.3l1.5-1.3c0.7,0.8,1.3,1.5,2,2.3L405.1,82.8z M68.1,69.8l-1.4-1.4c0.7-0.7,1.4-1.4,2.1-2.1l1.4,1.4
	C69.5,68.4,68.8,69.1,68.1,69.8z M393,69.6c-0.7-0.7-1.4-1.4-2.1-2.1l1.4-1.4c0.7,0.7,1.4,1.4,2.1,2.1L393,69.6z M81.2,57.6
	l-1.3-1.5c0.8-0.7,1.5-1.3,2.3-2l1.3,1.5C82.7,56.3,81.9,57,81.2,57.6z M379.9,57.4c-0.8-0.7-1.5-1.3-2.3-1.9l1.3-1.5
	c0.8,0.6,1.5,1.3,2.3,2L379.9,57.4z M95.2,46.4L94,44.8c0.8-0.6,1.6-1.2,2.4-1.8l1.2,1.6C96.8,45.3,96,45.9,95.2,46.4z M365.9,46.2
	c-0.8-0.6-1.6-1.2-2.4-1.8l1.2-1.6c0.8,0.6,1.6,1.2,2.4,1.8L365.9,46.2z M110,36.4l-1.1-1.7c0.9-0.5,1.7-1.1,2.6-1.6l1,1.7
	C111.7,35.4,110.8,35.9,110,36.4z M351,36.2c-0.8-0.5-1.7-1-2.6-1.6l1-1.7c0.9,0.5,1.7,1,2.6,1.6L351,36.2z M125.5,27.5l-0.9-1.8
	c0.9-0.5,1.8-0.9,2.7-1.4l0.9,1.8C127.3,26.6,126.4,27.1,125.5,27.5z M335.4,27.3c-0.9-0.5-1.8-0.9-2.7-1.4l0.9-1.8
	c0.9,0.5,1.8,0.9,2.7,1.4L335.4,27.3z M141.7,19.9l-0.8-1.8c0.9-0.4,1.8-0.8,2.8-1.1l0.8,1.9C143.6,19.2,142.6,19.6,141.7,19.9z
	 M319.1,19.7c-0.9-0.4-1.8-0.8-2.8-1.1l0.8-1.9c0.9,0.4,1.9,0.8,2.8,1.2L319.1,19.7z M158.5,13.6l-0.6-1.9c1-0.3,1.9-0.6,2.9-0.9
	l0.6,1.9C160.4,13,159.4,13.3,158.5,13.6z M302.3,13.5c-0.9-0.3-1.9-0.6-2.9-0.9l0.6-1.9c1,0.3,1.9,0.6,2.9,0.9L302.3,13.5z
	 M175.7,8.7l-0.5-1.9c1-0.2,2-0.5,2.9-0.7l0.5,1.9C177.6,8.2,176.7,8.4,175.7,8.7z M285.1,8.5c-1-0.2-1.9-0.5-2.9-0.7l0.4-1.9
	c1,0.2,2,0.5,2.9,0.7L285.1,8.5z M193.2,5l-0.3-2c1-0.2,2-0.3,3-0.5l0.3,2C195.2,4.7,194.2,4.9,193.2,5z M267.6,5
	c-1-0.2-2-0.3-3-0.5l0.3-2c1,0.1,2,0.3,3,0.5L267.6,5z M211,2.8l-0.2-2c1-0.1,2-0.2,3-0.2l0.1,2C213,2.7,212,2.7,211,2.8z
	 M249.8,2.8c-1-0.1-2-0.2-3-0.2l0.1-2c1,0.1,2,0.1,3,0.2L249.8,2.8z M228.9,2l0-2c0.6,0,1.2,0,1.8,0l1.2,0l0,2l-1.2,0
	C230.1,2,229.5,2,228.9,2z"/>
</svg>
